<svg width="25" height="25" viewBox="0 0 25 25" fill="none" xmlns="http://www.w3.org/2000/svg">
<g id="Frame" clip-path="url(#clip0_5324_10780)">
<path id="Vector" d="M0.503906 18.5V16.925C0.503906 16.2083 0.870573 15.625 1.60391 15.175C2.33724 14.725 3.30391 14.5 4.50391 14.5C4.72057 14.5 4.92891 14.5042 5.12891 14.5125C5.32891 14.5208 5.52057 14.5417 5.70391 14.575C5.47057 14.925 5.29557 15.2917 5.17891 15.675C5.06224 16.0583 5.00391 16.4583 5.00391 16.875V18.5H0.503906ZM6.50391 18.5V16.875C6.50391 16.3417 6.64974 15.8542 6.94141 15.4125C7.23307 14.9708 7.64557 14.5833 8.17891 14.25C8.71224 13.9167 9.34974 13.6667 10.0914 13.5C10.8331 13.3333 11.6372 13.25 12.5039 13.25C13.3872 13.25 14.1997 13.3333 14.9414 13.5C15.6831 13.6667 16.3206 13.9167 16.8539 14.25C17.3872 14.5833 17.7956 14.9708 18.0789 15.4125C18.3622 15.8542 18.5039 16.3417 18.5039 16.875V18.5H6.50391ZM20.0039 18.5V16.875C20.0039 16.4417 19.9497 16.0333 19.8414 15.65C19.7331 15.2667 19.5706 14.9083 19.3539 14.575C19.5372 14.5417 19.7247 14.5208 19.9164 14.5125C20.1081 14.5042 20.3039 14.5 20.5039 14.5C21.7039 14.5 22.6706 14.7208 23.4039 15.1625C24.1372 15.6042 24.5039 16.1917 24.5039 16.925V18.5H20.0039ZM4.50391 13.5C3.95391 13.5 3.48307 13.3042 3.09141 12.9125C2.69974 12.5208 2.50391 12.05 2.50391 11.5C2.50391 10.9333 2.69974 10.4583 3.09141 10.075C3.48307 9.69167 3.95391 9.5 4.50391 9.5C5.07057 9.5 5.54557 9.69167 5.92891 10.075C6.31224 10.4583 6.50391 10.9333 6.50391 11.5C6.50391 12.05 6.31224 12.5208 5.92891 12.9125C5.54557 13.3042 5.07057 13.5 4.50391 13.5ZM20.5039 13.5C19.9539 13.5 19.4831 13.3042 19.0914 12.9125C18.6997 12.5208 18.5039 12.05 18.5039 11.5C18.5039 10.9333 18.6997 10.4583 19.0914 10.075C19.4831 9.69167 19.9539 9.5 20.5039 9.5C21.0706 9.5 21.5456 9.69167 21.9289 10.075C22.3122 10.4583 22.5039 10.9333 22.5039 11.5C22.5039 12.05 22.3122 12.5208 21.9289 12.9125C21.5456 13.3042 21.0706 13.5 20.5039 13.5ZM12.5039 12.5C11.6706 12.5 10.9622 12.2083 10.3789 11.625C9.79557 11.0417 9.50391 10.3333 9.50391 9.5C9.50391 8.65 9.79557 7.9375 10.3789 7.3625C10.9622 6.7875 11.6706 6.5 12.5039 6.5C13.3539 6.5 14.0664 6.7875 14.6414 7.3625C15.2164 7.9375 15.5039 8.65 15.5039 9.5C15.5039 10.3333 15.2164 11.0417 14.6414 11.625C14.0664 12.2083 13.3539 12.5 12.5039 12.5Z" fill="#5F6368"/>
</g>
<defs>
<clipPath id="clip0_5324_10780">
<rect width="24" height="24" fill="white" transform="translate(0.503906 0.5)"/>
</clipPath>
</defs>
</svg>
